<mxfile host="65bd71144e">
    <diagram id="-NTjrvs-vra0zDaYLr7q" name="Page-1">
        <mxGraphModel dx="1130" dy="792" grid="1" gridSize="10" guides="1" tooltips="1" connect="1" arrows="1" fold="1" page="1" pageScale="1" pageWidth="850" pageHeight="1100" math="0" shadow="0">
            <root>
                <mxCell id="0"/>
                <mxCell id="1" parent="0"/>
                <mxCell id="2" value="" style="shape=callout;whiteSpace=wrap;html=1;perimeter=calloutPerimeter;" vertex="1" parent="1">
                    <mxGeometry x="80" y="190" width="120" height="80" as="geometry"/>
                </mxCell>
                <mxCell id="3" value="&lt;h1 style=&quot;text-align: left;&quot;&gt;Desgin 1&lt;/h1&gt;" style="rounded=1;whiteSpace=wrap;html=1;" vertex="1" parent="1">
                    <mxGeometry x="40" y="80" width="240" height="80" as="geometry"/>
                </mxCell>
                <mxCell id="4" value="&lt;h1&gt;AHH!!!&lt;/h1&gt;" style="text;html=1;strokeColor=none;fillColor=none;spacing=5;spacingTop=-20;whiteSpace=wrap;overflow=hidden;rounded=0;" vertex="1" parent="1">
                    <mxGeometry x="80" y="190" width="120" height="50" as="geometry"/>
                </mxCell>
                <mxCell id="6" value="&lt;h1 style=&quot;text-align: left;&quot;&gt;Desgin 2&lt;/h1&gt;" style="rounded=1;whiteSpace=wrap;html=1;" vertex="1" parent="1">
                    <mxGeometry x="440" y="80" width="240" height="80" as="geometry"/>
                </mxCell>
                <mxCell id="7" value="" style="shape=callout;whiteSpace=wrap;html=1;perimeter=calloutPerimeter;" vertex="1" parent="1">
                    <mxGeometry x="500" y="320" width="120" height="80" as="geometry"/>
                </mxCell>
                <mxCell id="8" value="&lt;h1&gt;AHH!!!&lt;/h1&gt;" style="text;html=1;strokeColor=none;fillColor=none;spacing=5;spacingTop=-20;whiteSpace=wrap;overflow=hidden;rounded=0;" vertex="1" parent="1">
                    <mxGeometry x="500" y="320" width="120" height="50" as="geometry"/>
                </mxCell>
                <mxCell id="10" value="" style="verticalLabelPosition=bottom;verticalAlign=top;html=1;shape=mxgraph.basic.acute_triangle;dx=0.5;" vertex="1" parent="1">
                    <mxGeometry x="530" y="190" width="60" height="120" as="geometry"/>
                </mxCell>
                <mxCell id="11" value="" style="verticalLabelPosition=bottom;verticalAlign=top;html=1;shape=mxgraph.basic.acute_triangle;dx=0.5;direction=south;" vertex="1" parent="1">
                    <mxGeometry x="640" y="330" width="120" height="37.5" as="geometry"/>
                </mxCell>
                <mxCell id="12" value="" style="verticalLabelPosition=bottom;verticalAlign=top;html=1;shape=mxgraph.basic.acute_triangle;dx=0.5;direction=north;" vertex="1" parent="1">
                    <mxGeometry x="365" y="330" width="120" height="37.5" as="geometry"/>
                </mxCell>
                <mxCell id="13" value="" style="verticalLabelPosition=bottom;verticalAlign=top;html=1;shape=mxgraph.basic.acute_triangle;dx=0.5;direction=west;" vertex="1" parent="1">
                    <mxGeometry x="530" y="410" width="60" height="120" as="geometry"/>
                </mxCell>
                <mxCell id="14" value="" style="verticalLabelPosition=bottom;verticalAlign=top;html=1;shape=mxgraph.basic.obtuse_triangle;dx=0.25;" vertex="1" parent="1">
                    <mxGeometry x="440" y="220" width="60" height="90" as="geometry"/>
                </mxCell>
                <mxCell id="15" value="" style="verticalLabelPosition=bottom;verticalAlign=top;html=1;shape=mxgraph.basic.obtuse_triangle;dx=0.25;direction=south;" vertex="1" parent="1">
                    <mxGeometry x="630" y="250" width="90" height="60" as="geometry"/>
                </mxCell>
                <mxCell id="16" value="" style="verticalLabelPosition=bottom;verticalAlign=top;html=1;shape=mxgraph.basic.obtuse_triangle;dx=0.25;direction=west;" vertex="1" parent="1">
                    <mxGeometry x="630" y="400" width="60" height="90" as="geometry"/>
                </mxCell>
                <mxCell id="17" value="" style="verticalLabelPosition=bottom;verticalAlign=top;html=1;shape=mxgraph.basic.obtuse_triangle;dx=0.25;direction=north;" vertex="1" parent="1">
                    <mxGeometry x="410" y="400" width="90" height="60" as="geometry"/>
                </mxCell>
                <mxCell id="18" value="&lt;h1 style=&quot;text-align: left;&quot;&gt;Desgin 3&lt;/h1&gt;" style="rounded=1;whiteSpace=wrap;html=1;" vertex="1" parent="1">
                    <mxGeometry x="840" y="80" width="240" height="80" as="geometry"/>
                </mxCell>
                <mxCell id="19" value="" style="shape=callout;whiteSpace=wrap;html=1;perimeter=calloutPerimeter;base=0;" vertex="1" parent="1">
                    <mxGeometry x="900" y="280" width="120" height="80" as="geometry"/>
                </mxCell>
                <mxCell id="22" value="" style="shape=flexArrow;endArrow=classic;html=1;width=295;endSize=45.35;" edge="1" parent="1">
                    <mxGeometry width="50" height="50" relative="1" as="geometry">
                        <mxPoint x="910" y="390" as="sourcePoint"/>
                        <mxPoint x="1010" y="430" as="targetPoint"/>
                        <Array as="points">
                            <mxPoint x="1000" y="360"/>
                        </Array>
                    </mxGeometry>
                </mxCell>
                <mxCell id="23" value="" style="shape=flexArrow;endArrow=classic;html=1;width=295;endSize=45.35;" edge="1" parent="1">
                    <mxGeometry width="50" height="50" relative="1" as="geometry">
                        <mxPoint x="880" y="350" as="sourcePoint"/>
                        <mxPoint x="980" y="390" as="targetPoint"/>
                        <Array as="points">
                            <mxPoint x="970" y="320"/>
                        </Array>
                    </mxGeometry>
                </mxCell>
                <mxCell id="24" value="" style="shape=flexArrow;endArrow=classic;html=1;width=295;endSize=45.35;" edge="1" parent="1">
                    <mxGeometry width="50" height="50" relative="1" as="geometry">
                        <mxPoint x="950" y="400" as="sourcePoint"/>
                        <mxPoint x="1050" y="440" as="targetPoint"/>
                        <Array as="points">
                            <mxPoint x="1020" y="550"/>
                        </Array>
                    </mxGeometry>
                </mxCell>
                <mxCell id="25" value="ARGHHHHH!!!!!!" style="edgeLabel;html=1;align=center;verticalAlign=middle;resizable=0;points=[];" vertex="1" connectable="0" parent="24">
                    <mxGeometry x="-1" y="93" relative="1" as="geometry">
                        <mxPoint x="-59" y="-51" as="offset"/>
                    </mxGeometry>
                </mxCell>
            </root>
        </mxGraphModel>
    </diagram>
</mxfile>